<svg width="50" height="50" viewBox="0 0 50 50" fill="none" xmlns="http://www.w3.org/2000/svg">
<path d="M18 28C23.5228 28 28 23.5228 28 18C28 12.4772 23.5228 8 18 8C12.4772 8 8 12.4772 8 18C8 23.5228 12.4772 28 18 28Z" stroke="white" stroke-width="3"/>
<path d="M32 28C37.5228 28 42 23.5228 42 18C42 12.4772 37.5228 8 32 8C26.4772 8 22 12.4772 22 18C22 23.5228 26.4772 28 32 28Z" stroke="white" stroke-width="3"/>
<path d="M25 42C30.5228 42 35 37.5228 35 32C35 26.4772 30.5228 22 25 22C19.4772 22 15 26.4772 15 32C15 37.5228 19.4772 42 25 42Z" stroke="white" stroke-width="3"/>
</svg>
